<svg width="133" height="40" viewBox="0 0 133 40" fill="none" xmlns="http://www.w3.org/2000/svg">
<circle cx="30.7797" cy="10.2192" r="2.10239" transform="rotate(-15 30.7797 10.2192)" fill="#12282F"/>
<path d="M21.4281 10.3609H16.8953C16.5499 10.3609 16.2477 10.5335 16.1182 10.8789L10.981 24.8659L5.80064 10.8789C5.67114 10.5335 5.36895 10.3609 5.02359 10.3609H0.577103C0.102236 10.3609 -0.113613 10.6199 0.0590663 11.0948L8.21815 31.5572L5.1531 38.9824C4.93725 39.4573 5.19627 39.7163 5.67114 39.7163H9.98811C10.3335 39.7163 10.6357 39.5436 10.7652 39.1983L21.9461 11.0948C22.1188 10.6199 21.903 10.3609 21.4281 10.3609Z" fill="#12282F"/>
<path d="M132.545 30.7369L123.825 19.1242L131.293 11.1378C131.682 10.7493 131.509 10.3607 130.948 10.3607H125.983C125.681 10.3607 125.422 10.4471 125.206 10.7061L117.436 19.081V0.647546C117.436 0.259018 117.177 0 116.788 0H112.385C111.996 0 111.737 0.259018 111.737 0.647546V30.8664C111.737 31.2549 111.996 31.5139 112.385 31.5139H116.788C117.177 31.5139 117.436 31.2549 117.436 30.8664V25.945L120.371 22.8368L126.631 31.1254C126.847 31.4276 127.063 31.5139 127.408 31.5139H132.157C132.675 31.5139 132.847 31.1686 132.545 30.7369Z" fill="#12282F"/>
<path d="M107.207 10.3612H103.235C102.847 10.3612 102.631 10.6202 102.588 11.0088L102.458 12.9946C100.861 11.1814 98.7024 9.88635 96.0259 9.88635C90.1117 9.88635 85.7947 14.8077 85.7947 20.981C85.7947 27.1543 90.1117 32.0756 96.0259 32.0756C98.7888 32.0756 100.904 30.8237 102.415 29.0537L102.588 30.8669C102.631 31.2554 102.847 31.5144 103.235 31.5144H107.207C107.595 31.5144 107.854 31.2554 107.854 30.8669V11.0088C107.854 10.6202 107.595 10.3612 107.207 10.3612ZM96.7166 26.8952C93.5652 26.8952 91.2772 24.3482 91.2772 20.9378C91.2772 17.5706 93.5652 15.0667 96.7166 15.0667C99.8249 15.0667 102.113 17.7433 102.113 20.9378C102.113 24.1324 99.8249 26.8952 96.7166 26.8952Z" fill="#12282F"/>
<path d="M74.626 9.88635C71.1724 9.88635 68.6686 11.5268 67.1576 13.8148C65.8194 11.2678 63.445 9.88635 60.639 9.88635C57.5739 9.88635 55.3291 11.57 53.9477 13.8148V13.7716L53.775 11.0088C53.7318 10.6202 53.516 10.3612 53.1275 10.3612H48.8968C48.5083 10.3612 48.2493 10.6202 48.2493 11.0088V30.8669C48.2493 31.2554 48.5083 31.5144 48.8968 31.5144H53.3001C53.6887 31.5144 53.9477 31.2554 53.9477 30.8669V19.2974C53.9477 18.3045 55.4155 15.1531 58.61 15.1531C60.6822 15.1531 62.5816 16.3618 62.5816 19.8586V30.8669C62.5816 31.2554 62.8407 31.5144 63.2292 31.5144H67.6325C68.021 31.5144 68.28 31.2554 68.28 30.8669V19.211C68.28 17.7001 69.7478 15.1531 72.9424 15.1531C74.9714 15.1531 76.8708 16.3618 76.8708 19.8586V30.8669C76.8708 31.2554 77.1298 31.5144 77.5184 31.5144H81.9217C82.3102 31.5144 82.5692 31.2554 82.5692 30.8669V18.8225C82.5692 13.1673 79.2452 9.88635 74.626 9.88635Z" fill="#12282F"/>
<path d="M30.7805 10.2194C25.3388 11.6775 21.9839 17.0365 22.9183 22.4816C22.9724 22.797 22.9995 22.9546 23.0987 23.0802C23.181 23.1843 23.3152 23.2703 23.4442 23.3014C23.5998 23.339 23.7682 23.2939 24.1051 23.2036L43.0538 18.1264C43.3906 18.0361 43.559 17.991 43.675 17.8806C43.7711 17.7892 43.8444 17.6476 43.8636 17.5163C43.8867 17.3579 43.8313 17.2078 43.7205 16.9077C41.8071 11.7248 36.2223 8.76132 30.7805 10.2194Z" fill="#12282F"/>
<path d="M42.0736 25.5691C42.3755 25.7433 42.5264 25.8305 42.6099 25.9672C42.679 26.0805 42.7131 26.2365 42.6976 26.3683C42.6788 26.5273 42.5865 26.6575 42.4019 26.918C41.5031 28.1861 40.3391 29.2489 38.9862 30.03C37.3422 30.9792 35.4774 31.4788 33.5792 31.4788C31.6809 31.4788 29.8161 30.9792 28.1721 30.03C26.8192 29.2489 25.6552 28.1861 24.7564 26.918C24.5718 26.6575 24.4795 26.5273 24.4607 26.3683C24.4452 26.2365 24.4793 26.0805 24.5485 25.9672C24.6319 25.8305 24.7828 25.7433 25.0847 25.5691L27.3937 24.236C27.6961 24.0614 27.8473 23.9741 27.9812 23.9604C28.1132 23.947 28.2058 23.9638 28.3246 24.0229C28.4452 24.0828 28.5755 24.2415 28.8361 24.559C29.3027 25.1272 29.8693 25.6091 30.5107 25.9795C31.4436 26.5181 32.5019 26.8017 33.5792 26.8017C34.6564 26.8017 35.7147 26.5181 36.6476 25.9795C37.289 25.6091 37.8556 25.1272 38.3222 24.559C38.5828 24.2415 38.7132 24.0828 38.8337 24.0229C38.9526 23.9638 39.0451 23.947 39.1771 23.9604C39.311 23.9741 39.4622 24.0614 39.7646 24.236L42.0736 25.5691Z" fill="#12282F"/>
</svg>
